<mxfile host="app.diagrams.net" modified="2021-04-24T15:30:05.075Z" agent="5.0 (Windows NT 10.0; Win64; x64) AppleWebKit/537.36 (KHTML, like Gecko) Chrome/89.0.4389.90 Safari/537.36" etag="cIRvdTb8jccvboP4Np83" version="14.6.6" type="github">
  <diagram id="ZzOVsnrYUJ-dznjSf_1K" name="Page-1">
    <mxGraphModel dx="1422" dy="762" grid="1" gridSize="10" guides="1" tooltips="1" connect="1" arrows="1" fold="1" page="1" pageScale="1" pageWidth="827" pageHeight="1169" math="0" shadow="0">
      <root>
        <mxCell id="0" />
        <mxCell id="1" parent="0" />
        <mxCell id="l8B7FG_E-9vK3loGG6Pk-2" style="edgeStyle=orthogonalEdgeStyle;rounded=0;orthogonalLoop=1;jettySize=auto;html=1;" edge="1" parent="1" source="l8B7FG_E-9vK3loGG6Pk-1">
          <mxGeometry relative="1" as="geometry">
            <mxPoint x="140" y="790" as="targetPoint" />
          </mxGeometry>
        </mxCell>
        <mxCell id="l8B7FG_E-9vK3loGG6Pk-4" style="edgeStyle=orthogonalEdgeStyle;rounded=0;orthogonalLoop=1;jettySize=auto;html=1;" edge="1" parent="1" source="l8B7FG_E-9vK3loGG6Pk-1">
          <mxGeometry relative="1" as="geometry">
            <mxPoint x="640" y="790" as="targetPoint" />
          </mxGeometry>
        </mxCell>
        <mxCell id="l8B7FG_E-9vK3loGG6Pk-6" value="" style="edgeStyle=orthogonalEdgeStyle;rounded=0;orthogonalLoop=1;jettySize=auto;html=1;" edge="1" parent="1" source="l8B7FG_E-9vK3loGG6Pk-1" target="l8B7FG_E-9vK3loGG6Pk-5">
          <mxGeometry relative="1" as="geometry" />
        </mxCell>
        <mxCell id="l8B7FG_E-9vK3loGG6Pk-1" value="埋点" style="whiteSpace=wrap;html=1;aspect=fixed;" vertex="1" parent="1">
          <mxGeometry x="330" y="20" width="100" height="100" as="geometry" />
        </mxCell>
        <mxCell id="l8B7FG_E-9vK3loGG6Pk-8" value="" style="edgeStyle=orthogonalEdgeStyle;rounded=0;orthogonalLoop=1;jettySize=auto;html=1;" edge="1" parent="1" source="l8B7FG_E-9vK3loGG6Pk-5" target="l8B7FG_E-9vK3loGG6Pk-7">
          <mxGeometry relative="1" as="geometry" />
        </mxCell>
        <mxCell id="l8B7FG_E-9vK3loGG6Pk-5" value="数据采集" style="whiteSpace=wrap;html=1;" vertex="1" parent="1">
          <mxGeometry x="320" y="220" width="120" height="60" as="geometry" />
        </mxCell>
        <mxCell id="l8B7FG_E-9vK3loGG6Pk-10" value="" style="edgeStyle=orthogonalEdgeStyle;rounded=0;orthogonalLoop=1;jettySize=auto;html=1;" edge="1" parent="1" source="l8B7FG_E-9vK3loGG6Pk-7" target="l8B7FG_E-9vK3loGG6Pk-9">
          <mxGeometry relative="1" as="geometry" />
        </mxCell>
        <mxCell id="l8B7FG_E-9vK3loGG6Pk-7" value="数据建模存储" style="whiteSpace=wrap;html=1;" vertex="1" parent="1">
          <mxGeometry x="320" y="360" width="120" height="60" as="geometry" />
        </mxCell>
        <mxCell id="l8B7FG_E-9vK3loGG6Pk-12" value="" style="edgeStyle=orthogonalEdgeStyle;rounded=0;orthogonalLoop=1;jettySize=auto;html=1;" edge="1" parent="1" source="l8B7FG_E-9vK3loGG6Pk-9" target="l8B7FG_E-9vK3loGG6Pk-11">
          <mxGeometry relative="1" as="geometry" />
        </mxCell>
        <mxCell id="l8B7FG_E-9vK3loGG6Pk-9" value="数据参数批量/实时" style="whiteSpace=wrap;html=1;" vertex="1" parent="1">
          <mxGeometry x="320" y="500" width="120" height="60" as="geometry" />
        </mxCell>
        <mxCell id="l8B7FG_E-9vK3loGG6Pk-13" style="edgeStyle=orthogonalEdgeStyle;rounded=0;orthogonalLoop=1;jettySize=auto;html=1;" edge="1" parent="1" source="l8B7FG_E-9vK3loGG6Pk-11">
          <mxGeometry relative="1" as="geometry">
            <mxPoint x="240" y="760" as="targetPoint" />
          </mxGeometry>
        </mxCell>
        <mxCell id="l8B7FG_E-9vK3loGG6Pk-20" style="edgeStyle=orthogonalEdgeStyle;rounded=0;orthogonalLoop=1;jettySize=auto;html=1;entryX=0.5;entryY=0;entryDx=0;entryDy=0;" edge="1" parent="1" source="l8B7FG_E-9vK3loGG6Pk-11" target="l8B7FG_E-9vK3loGG6Pk-16">
          <mxGeometry relative="1" as="geometry" />
        </mxCell>
        <mxCell id="l8B7FG_E-9vK3loGG6Pk-11" value="数据分析统计" style="whiteSpace=wrap;html=1;" vertex="1" parent="1">
          <mxGeometry x="320" y="640" width="120" height="60" as="geometry" />
        </mxCell>
        <mxCell id="l8B7FG_E-9vK3loGG6Pk-14" value="报告和报警" style="rounded=0;whiteSpace=wrap;html=1;" vertex="1" parent="1">
          <mxGeometry x="190" y="760" width="120" height="60" as="geometry" />
        </mxCell>
        <mxCell id="l8B7FG_E-9vK3loGG6Pk-15" value="" style="endArrow=classic;html=1;entryX=0;entryY=0.5;entryDx=0;entryDy=0;" edge="1" parent="1" target="l8B7FG_E-9vK3loGG6Pk-14">
          <mxGeometry width="50" height="50" relative="1" as="geometry">
            <mxPoint x="140" y="790" as="sourcePoint" />
            <mxPoint x="190" y="740" as="targetPoint" />
          </mxGeometry>
        </mxCell>
        <mxCell id="l8B7FG_E-9vK3loGG6Pk-16" value="数据可视化" style="rounded=0;whiteSpace=wrap;html=1;" vertex="1" parent="1">
          <mxGeometry x="460" y="760" width="120" height="60" as="geometry" />
        </mxCell>
        <mxCell id="l8B7FG_E-9vK3loGG6Pk-19" value="" style="endArrow=classic;html=1;" edge="1" parent="1" target="l8B7FG_E-9vK3loGG6Pk-16">
          <mxGeometry width="50" height="50" relative="1" as="geometry">
            <mxPoint x="640" y="785" as="sourcePoint" />
            <mxPoint x="440" y="570" as="targetPoint" />
          </mxGeometry>
        </mxCell>
      </root>
    </mxGraphModel>
  </diagram>
</mxfile>
